<?xml version="1.0" encoding="utf-8"?>
<!-- Generator: Adobe Illustrator 17.0.1, SVG Export Plug-In . SVG Version: 6.00 Build 0)  -->
<!DOCTYPE svg PUBLIC "-//W3C//DTD SVG 1.1//EN" "http://www.w3.org/Graphics/SVG/1.1/DTD/svg11.dtd">
<svg version="1.1" id="Layer_1" xmlns="http://www.w3.org/2000/svg" xmlns:xlink="http://www.w3.org/1999/xlink" x="0px" y="0px"
	 width="50px" height="50px" viewBox="0 0 50 50" enable-background="new 0 0 50 50" xml:space="preserve">
<g>
	<path d="M0.709,51.229c0,0,20.619-48.259,21.876-45.56"/>
	<g>
		<path d="M2.158,50.841c3.213-7.517,6.505-15.002,9.862-22.456c2.365-5.25,4.769-10.485,7.322-15.647
			c0.98-1.982,2.385-6.385,4.467-7.55c-0.966,0.259-1.932,0.518-2.898,0.776c0.125-0.022,0.15-0.01,0.225,0.092
			c0.224,0.307,2.699-1.05,2.898-0.776c-0.781-1.072-3.742,1.265-4.225,2c-3.014,4.587-5.166,9.878-7.469,14.838
			c-4.53,9.754-8.852,19.61-13.079,29.499C-0.504,51.066,1.908,51.425,2.158,50.841L2.158,50.841z"/>
	</g>
</g>
<g>
	<line x1="12" y1="27" x2="28" y2="27"/>
	<g>
		<path d="M10.551,27.388c5.333,0,10.667,0,16,0c0.971,0,1.938-0.776,2.898-0.776c-5.333,0-10.667,0-16,0
			C12.478,26.612,11.511,27.388,10.551,27.388L10.551,27.388z"/>
	</g>
</g>
<g>
	<g>
		<path d="M46.907,15.266C46.568,3.911,35.603,1.77,26.366,4.303c-4.537,1.244-7.774,3.671-8.135,8.647
			c-0.404,5.568,6.013,8.066,10.076,10.059c7.568,3.713,21.213,8.094,14.663,19.302c-3.32,5.681-10.366,5.32-15.642,3.027
			c-5.355-2.327-6.58-7.691-6.388-13.007c-0.01,0.271-2.886,0.462-2.898,0.776c-0.18,4.983,0.775,9.348,5.082,12.319
			c3.699,2.551,9.055,2.811,13.277,1.725c7.399-1.903,15.547-9.581,8.769-17.301c-5.886-6.704-17.503-6.338-22.962-13.699
			c-1.695-2.285-1.174-5.556-0.135-7.946c1.679-3.864,6.472-4.316,10.065-4.178c7.13,0.274,11.667,5.067,11.874,12.014
			C44.003,15.835,46.914,15.517,46.907,15.266L46.907,15.266z"/>
	</g>
</g>
</svg>
